<svg xmlns="http://www.w3.org/2000/svg" xmlns:xlink="http://www.w3.org/1999/xlink" width="48" height="32" viewBox="0 0 48 32">
  <defs>
    <clipPath id="clip-path">
      <rect id="Rectangle_407" data-name="Rectangle 407" width="24" height="24" transform="translate(0.217)" fill="#fff" stroke="#707070" stroke-width="1"/>
    </clipPath>
  </defs>
  <g id="Glyph" transform="translate(-0.217)">
    <g id="Frame" transform="translate(0.217)" fill="rgba(255,255,255,0)" stroke="rgba(0,0,0,0)" stroke-width="1">
      <rect width="48" height="32" stroke="none"/>
      <rect x="0.5" y="0.5" width="47" height="31" fill="none"/>
    </g>
    <g id="active-calc-icon" transform="translate(12.217 8)">
      <g id="active-calc-icon-2" data-name="active-calc-icon" transform="translate(-0.217)" clip-path="url(#clip-path)">
        <g id="calculator-duotone" transform="translate(1.5)">
          <path id="Path_392" data-name="Path 392" d="M5.4,18H3.6a.645.645,0,0,0-.6.6v1.8a.645.645,0,0,0,.6.6H5.4a.645.645,0,0,0,.6-.6V18.6A.645.645,0,0,0,5.4,18Zm0-6H3.6a.645.645,0,0,0-.6.6v1.8a.645.645,0,0,0,.6.6H5.4a.645.645,0,0,0,.6-.6V12.6a.645.645,0,0,0-.6-.6Zm6,6H9.6a.645.645,0,0,0-.6.6v1.8a.645.645,0,0,0,.6.6h1.8a.645.645,0,0,0,.6-.6V18.6A.645.645,0,0,0,11.4,18Zm0-6H9.6a.645.645,0,0,0-.6.6v1.8a.645.645,0,0,0,.6.6h1.8a.645.645,0,0,0,.6-.6V12.6a.645.645,0,0,0-.6-.6Zm6,0H15.6a.645.645,0,0,0-.6.6v7.8a.645.645,0,0,0,.6.6h1.8a.645.645,0,0,0,.6-.6V12.6a.645.645,0,0,0-.6-.6Z" fill="#eac547"/>
          <path id="Path_393" data-name="Path 393" d="M18.75,0H2.25A2.307,2.307,0,0,0,0,2.25v19.5A2.307,2.307,0,0,0,2.25,24h16.5A2.307,2.307,0,0,0,21,21.75V2.25A2.307,2.307,0,0,0,18.75,0ZM6,20.4a.645.645,0,0,1-.6.6H3.6a.645.645,0,0,1-.6-.6V18.6a.645.645,0,0,1,.6-.6H5.4a.645.645,0,0,1,.6.6Zm0-6a.645.645,0,0,1-.6.6H3.6a.645.645,0,0,1-.6-.6V12.6a.645.645,0,0,1,.6-.6H5.4a.645.645,0,0,1,.6.6Zm6,6a.645.645,0,0,1-.6.6H9.6a.645.645,0,0,1-.6-.6V18.6a.645.645,0,0,1,.6-.6h1.8a.645.645,0,0,1,.6.6Zm0-6a.645.645,0,0,1-.6.6H9.6a.645.645,0,0,1-.6-.6V12.6a.645.645,0,0,1,.6-.6h1.8a.645.645,0,0,1,.6.6Zm6,6a.645.645,0,0,1-.6.6H15.6a.645.645,0,0,1-.6-.6V12.6a.645.645,0,0,1,.6-.6h1.8a.645.645,0,0,1,.6.6Zm0-12a.645.645,0,0,1-.6.6H3.6A.645.645,0,0,1,3,8.4V3.6A.645.645,0,0,1,3.6,3H17.4a.645.645,0,0,1,.6.6Z" fill="#423f33"/>
        </g>
      </g>
    </g>
  </g>
</svg>
