<svg xmlns="http://www.w3.org/2000/svg" xmlns:xlink="http://www.w3.org/1999/xlink" width="28" height="28" viewBox="0 0 28 28">
  <defs>
    <clipPath id="clip-path">
      <rect id="Rectangle_403" data-name="Rectangle 403" width="28" height="28" transform="translate(-2)" fill="#fff" stroke="#707070" stroke-width="1"/>
    </clipPath>
  </defs>
  <g id="Mask_Group_96" data-name="Mask Group 96" transform="translate(2)" clip-path="url(#clip-path)">
    <path id="farm-light" d="M6.446,8l.667-1.333H1.333v-1.8A3.47,3.47,0,0,1,4.318,1.351,3.337,3.337,0,0,1,8,4.666v.273A2.659,2.659,0,0,1,9.2,3.816,4.751,4.751,0,0,0,4.918.007,4.666,4.666,0,0,0,0,4.666v16a.667.667,0,0,0,.667.667H5.333V20h-4V8ZM17,9.332H13.667a.333.333,0,0,0-.333.333V13a.333.333,0,0,0,.333.333H17A.333.333,0,0,0,17.333,13V9.665A.333.333,0,0,0,17,9.332ZM16,12H14.667V10.665H16Zm7.859-1.741L21.547,5.633a1.335,1.335,0,0,0-.651-.622l-5.021-2.23a1.334,1.334,0,0,0-1.083,0L9.77,5.013a1.609,1.609,0,0,0-.651.622L6.807,10.259a1.336,1.336,0,0,0-.141.6v9.809a.667.667,0,0,0,.667.667h5.333a.667.667,0,0,0,.667-.667V17.331h4v3.333A.667.667,0,0,0,18,21.33h5.333A.667.667,0,0,0,24,20.663V10.854a1.336,1.336,0,0,0-.141-.6ZM22.667,20h-4V16.664A.667.667,0,0,0,18,16H12.667a.667.667,0,0,0-.667.667V20H8V10.854L10.312,6.23,15.333,4l5.021,2.231,2.312,4.624Z" transform="translate(0 1.222)" fill="#423f33"/>
  </g>
</svg>
