<svg xmlns="http://www.w3.org/2000/svg" xmlns:xlink="http://www.w3.org/1999/xlink" width="24" height="24" viewBox="0 0 24 24">
  <defs>
    <clipPath id="clip-path">
      <rect id="Rectangle_406" data-name="Rectangle 406" width="24" height="24" transform="translate(0.217)" fill="#fff" stroke="#707070" stroke-width="1"/>
    </clipPath>
  </defs>
  <g id="Mask_Group_97" data-name="Mask Group 97" transform="translate(-0.217)" clip-path="url(#clip-path)">
    <path id="calculator-light" d="M3.75,21h13.5a.75.75,0,0,0,.75-.75v-9a.75.75,0,0,0-.75-.75H3.75a.75.75,0,0,0-.75.75v9A.75.75,0,0,0,3.75,21Zm9.75-4.5V12h3v7.5h-3ZM9,12h3v3H9Zm0,4.5h3v3H9ZM4.5,12h3v3h-3Zm0,4.5h3v3h-3ZM18.75,0H2.25A2.307,2.307,0,0,0,0,2.25v19.5A2.307,2.307,0,0,0,2.25,24h16.5A2.307,2.307,0,0,0,21,21.75V2.25A2.307,2.307,0,0,0,18.75,0Zm.75,21.75a.812.812,0,0,1-.75.75H2.25a.812.812,0,0,1-.75-.75V9h18Zm0-14.25H1.5V2.25a.812.812,0,0,1,.75-.75h16.5a.812.812,0,0,1,.75.75Z" transform="translate(1.5)" fill="#423f33"/>
  </g>
</svg>
